<svg width="63" height="65" viewBox="0 0 63 65" fill="none" xmlns="http://www.w3.org/2000/svg">
<path d="M45.916 3.05562C46.1093 2.46832 46.0558 1.83098 45.767 1.28159C45.4782 0.73219 44.9774 0.314935 44.3729 0.120147C43.7685 -0.0746415 43.1091 -0.0312911 42.5375 0.240814C41.9659 0.512919 41.528 0.991885 41.3187 1.57403L38.8957 8.60378C38.7024 9.19109 38.7559 9.82842 39.0447 10.3778C39.3335 10.9272 39.8343 11.3445 40.4387 11.5393C41.0431 11.734 41.7025 11.6907 42.2742 11.4186C42.8458 11.1465 43.2836 10.6675 43.493 10.0854L45.916 3.05562ZM60.6739 3.00248C61.1276 3.44204 61.3825 4.03788 61.3825 4.65912C61.3825 5.28036 61.1276 5.87619 60.6739 6.31575L52.5971 14.1301C52.3753 14.3604 52.1078 14.5451 51.8106 14.6732C51.5133 14.8014 51.1925 14.8703 50.8671 14.8758C50.5418 14.8814 50.2186 14.8235 49.9169 14.7056C49.6152 14.5877 49.3411 14.4122 49.111 14.1896C48.881 13.967 48.6996 13.7018 48.5777 13.4099C48.4558 13.118 48.396 12.8053 48.4017 12.4905C48.4075 12.1758 48.4787 11.8653 48.6111 11.5778C48.7435 11.2902 48.9345 11.0314 49.1726 10.8168L57.2493 3.00248C57.7037 2.56347 58.3195 2.31689 58.9616 2.31689C59.6037 2.31689 60.2196 2.56347 60.6739 3.00248ZM19.6309 9.56025C20.161 8.49528 20.9516 7.57149 21.9342 6.86897C22.9167 6.16645 24.0615 5.70641 25.2694 5.52874C26.4772 5.35106 27.7116 5.46111 28.8656 5.84935C30.0195 6.23759 31.0582 6.8923 31.8915 7.75671L54.5258 31.2184C55.3431 32.0657 55.9391 33.0898 56.264 34.2052C56.589 35.3207 56.6335 36.4952 56.3938 37.6307C56.1542 38.7662 55.6373 39.8298 54.8863 40.7327C54.1354 41.6356 53.1721 42.3516 52.077 42.8211L41.0279 47.5597C42.3716 50.5842 42.4282 53.9993 41.1854 57.0639C39.9425 60.1285 37.5005 62.5952 34.3895 63.9286C31.2784 65.2619 27.7494 65.3544 24.5683 64.1858C21.3873 63.0173 18.8109 60.682 17.3985 57.687L12.8206 59.65C11.7736 60.0988 10.6129 60.2386 9.48413 60.0517C8.35535 59.8649 7.30871 59.3598 6.47547 58.5997L1.82648 54.3581C0.927628 53.5384 0.321914 52.463 0.0971165 51.2879C-0.127681 50.1128 0.0401169 48.8989 0.576192 47.8222L19.6309 9.56338V9.56025ZM21.8343 55.7866C22.7463 57.612 24.3559 59.0229 26.3232 59.7215C28.2904 60.4201 30.4613 60.3515 32.3773 59.5303C34.2933 58.7092 35.8044 57.1996 36.5915 55.3206C37.3785 53.4416 37.3799 51.3401 36.5954 49.4601L21.831 55.7866H21.8343ZM28.3474 10.9574C28.0518 10.6511 27.6836 10.419 27.2744 10.2813C26.8653 10.1436 26.4277 10.1045 25.9994 10.1673C25.5711 10.2301 25.1651 10.3929 24.8165 10.6417C24.4679 10.8905 24.1873 11.2177 23.9989 11.5951L4.94412 49.8571C4.85419 50.0365 4.82576 50.2391 4.86294 50.4352C4.90012 50.6314 5.00099 50.811 5.15088 50.9479L9.79987 55.1864C9.93865 55.3129 10.1129 55.397 10.3008 55.4281C10.4887 55.4592 10.682 55.4361 10.8563 55.3615L50.1127 38.5357C50.5015 38.3694 50.8435 38.1156 51.1102 37.7954C51.377 37.4752 51.5607 37.0979 51.6461 36.695C51.7314 36.2922 51.716 35.8754 51.601 35.4795C51.486 35.0836 51.2748 34.72 50.985 34.4191L28.3474 10.9574ZM51.6925 21.8475C51.6925 21.2257 51.9478 20.6294 52.4022 20.1898C52.8566 19.7502 53.4729 19.5032 54.1155 19.5032H60.577C61.2196 19.5032 61.8359 19.7502 62.2903 20.1898C62.7447 20.6294 63 21.2257 63 21.8475C63 22.4692 62.7447 23.0655 62.2903 23.5051C61.8359 23.9448 61.2196 24.1918 60.577 24.1918H54.1155C53.4729 24.1918 52.8566 23.9448 52.4022 23.5051C51.9478 23.0655 51.6925 22.4692 51.6925 21.8475Z" fill="#4519E0"/>
</svg>
