<svg width="65" height="65" viewBox="0 0 65 65" fill="none" xmlns="http://www.w3.org/2000/svg">
<path d="M44.5455 0.459412L64.5378 20.4328C64.7438 20.6383 64.8888 20.8968 64.9566 21.1797C65.0245 21.4626 65.0125 21.7587 64.9222 22.0352C64.8318 22.3117 64.6665 22.5577 64.4446 22.746C64.2227 22.9343 63.953 23.0574 63.6653 23.1018L59.0224 23.8257L41.2067 6.02402L41.8744 1.35013C41.916 1.0611 42.0371 0.789319 42.2244 0.565174C42.4117 0.34103 42.6576 0.173365 42.9348 0.0809334C43.212 -0.0114985 43.5095 -0.0250521 43.7939 0.0417886C44.0784 0.108629 44.3386 0.253228 44.5455 0.459412ZM6.74388 60.6062C18.4677 50.1222 31.9271 46.9843 46.5677 43.2326L47.9726 30.5863L34.4376 17.0619L21.7814 18.4657C18.0267 33.0948 14.8863 46.5405 4.39407 58.2583L0 53.8708C8.90785 43.4844 12.253 31.9869 16.7038 12.6997L36.7496 10.4744L54.5684 28.2793L52.3415 48.3093C33.039 52.7598 21.5294 56.0992 11.138 65L6.74388 60.6062ZM23.3878 41.6274C22.7861 41.0467 22.3062 40.3521 21.976 39.5841C21.6459 38.8162 21.4721 37.9902 21.4648 37.1543C21.4576 36.3185 21.6169 35.4896 21.9337 34.716C22.2505 33.9424 22.7182 33.2396 23.3097 32.6485C23.9012 32.0575 24.6046 31.5901 25.3788 31.2736C26.153 30.9571 26.9826 30.7978 27.8191 30.8051C28.6555 30.8123 29.4822 30.986 30.2508 31.3159C31.0194 31.6458 31.7145 32.1253 32.2957 32.7266C33.4274 33.9165 34.0492 35.5011 34.0285 37.1425C34.0078 38.784 33.3461 40.3524 32.1846 41.5134C31.0232 42.6743 29.4537 43.336 27.811 43.3573C26.1683 43.3786 24.5822 42.7579 23.391 41.6274H23.3878Z" fill="#4519E0"/>
</svg>
