<svg width="74" height="66" viewBox="0 0 74 66" fill="none" xmlns="http://www.w3.org/2000/svg">
<path d="M74 32.9577C74 28.0553 67.8611 23.4087 58.4477 20.5288C60.6214 10.9366 59.6563 3.30225 55.4013 0.857167C54.3703 0.279721 53.2034 -0.0109393 52.022 0.0154167V3.37625C52.7157 3.37625 53.2738 3.515 53.7425 3.77092C55.7929 4.94875 56.684 9.42575 55.9902 15.1885C55.8237 16.6068 55.5524 18.0992 55.2194 19.6223C52.0671 18.8627 48.8678 18.3137 45.6426 17.9789C43.7212 15.3281 41.625 12.8086 39.368 10.4371C44.2859 5.86758 48.9017 3.36392 52.0405 3.36392V0C47.8903 0 42.4606 2.95692 36.9692 8.0845C31.4808 2.99083 26.048 0.0616666 21.9009 0.0616666V3.4225C25.0243 3.4225 29.6555 5.91383 34.5734 10.4525C32.4613 12.6725 30.3493 15.1885 28.342 17.9789C25.1102 18.31 21.9051 18.8643 18.7497 19.6377C18.4163 18.1941 18.1539 16.735 17.9635 15.2656C17.2543 9.49975 18.13 5.02275 20.1681 3.83258C20.6182 3.56125 21.2072 3.43792 21.9009 3.43792V0.0770833C20.6367 0.0770833 19.4867 0.348417 18.4938 0.918833C14.2543 3.36392 13.3046 10.9797 15.4907 20.5443C6.10808 23.4426 0 28.0707 0 32.9577C0 37.8602 6.13892 42.5068 15.5523 45.3836C13.3786 54.9789 14.3437 62.6133 18.5987 65.0553C19.5792 65.6288 20.7262 65.9001 21.9903 65.9001C26.1405 65.9001 31.5703 62.9432 37.0617 57.8156C42.55 62.9123 47.9797 65.8384 52.1299 65.8384C53.3204 65.8636 54.4962 65.572 55.537 64.9936C59.7766 62.5516 60.7262 54.9357 58.5402 45.3713C67.8919 42.4914 74 37.8448 74 32.9577ZM54.3592 22.8968C53.7733 24.9129 53.0942 26.9007 52.3242 28.8538C51.0636 26.4018 49.6794 24.0154 48.1771 21.7036C50.32 22.0212 52.3858 22.4127 54.3623 22.8968H54.3592ZM47.4525 38.961C46.3232 40.9327 45.1103 42.8553 43.8172 44.7238C39.2917 45.1226 34.74 45.1278 30.2136 44.7392C27.6173 41.0305 25.3466 37.1041 23.4272 33.004C25.3437 28.8942 27.6047 24.9541 30.1858 21.2257C34.7103 20.826 39.2609 20.8198 43.7864 21.2072C45.0382 23.0017 46.2623 24.9195 47.4371 26.9422C48.5841 28.9155 49.6262 30.9197 50.5759 32.9423C49.6157 34.9895 48.5737 36.9974 47.4525 38.961ZM52.3242 37C53.1382 39.0196 53.835 41.0422 54.4054 43.0032C52.4321 43.4873 50.3477 43.8943 48.1925 44.2088C49.6887 41.876 51.0676 39.4701 52.3242 37ZM37.0308 53.095C35.6279 51.6458 34.225 50.0332 32.8375 48.2665C34.1942 48.3282 35.5817 48.3744 36.9846 48.3744C38.4029 48.3744 39.8058 48.3436 41.1779 48.2665C39.8212 50.0332 38.4183 51.6458 37.0308 53.095ZM25.8075 44.2088C23.7285 43.9076 21.6646 43.5105 19.6223 43.0187C20.1804 41.0731 20.8742 39.0658 21.6573 37.0617C22.2771 38.2642 22.9277 39.4728 23.6368 40.6815C24.346 41.8871 25.0675 43.0649 25.8075 44.2088ZM36.9537 12.8205C38.3567 14.2697 39.7596 15.8822 41.1471 17.649C39.7904 17.5873 38.4029 17.5411 37 17.5411C35.5817 17.5411 34.1787 17.5719 32.8067 17.649C34.1633 15.8822 35.5662 14.2697 36.9537 12.8205ZM25.7921 21.7067C24.2963 24.0344 22.9173 26.4352 21.6604 28.9001C20.8687 26.9343 20.1741 24.9308 19.5792 22.8968C21.5525 22.4282 23.6368 22.0212 25.7921 21.7067ZM12.1422 40.589C6.80183 38.3135 3.3485 35.3257 3.3485 32.9577C3.3485 30.5898 6.80183 27.5866 12.1422 25.3265C13.4372 24.7684 14.8555 24.2689 16.3201 23.8033C17.1803 26.7572 18.3119 29.8343 19.7118 32.9886C18.3901 35.9553 17.2724 39.0087 16.3663 42.1276C14.934 41.6841 13.5242 41.1706 12.1422 40.589ZM20.2575 62.1415C18.2071 60.9698 17.316 56.4867 18.0098 50.727C18.1763 49.3087 18.4476 47.8133 18.7806 46.2901C21.7344 47.0147 24.9627 47.5728 28.3574 47.9366C30.2789 50.5873 32.3751 53.1068 34.632 55.4784C29.7141 60.0479 25.0983 62.5516 21.9595 62.5516C21.3673 62.558 20.7827 62.4182 20.2575 62.1446V62.1415ZM56.0365 50.6499C56.7457 56.4127 55.87 60.8927 53.8319 62.0829C53.3817 62.3542 52.7928 62.4745 52.0991 62.4745C48.9757 62.4745 44.3445 59.9862 39.4266 55.4445C41.6741 53.0829 43.7562 50.5691 45.658 47.9212C48.8898 47.5901 52.0949 47.0358 55.2503 46.2623C55.5987 47.7855 55.8669 49.247 56.0365 50.6499ZM61.8424 40.589C60.5474 41.1471 59.1291 41.6466 57.6645 42.1122C56.7425 38.9774 55.6094 35.9086 54.2728 32.9269C55.6603 29.7912 56.7734 26.7294 57.6182 23.7879C59.0552 24.2329 60.47 24.7463 61.8578 25.3265C67.1982 27.602 70.6515 30.5898 70.6515 32.9577C70.6361 35.3257 67.1827 38.3289 61.8424 40.589Z" fill="#4519E0"/>
</svg>
