<svg width="57" height="66" viewBox="0 0 57 66" fill="none" xmlns="http://www.w3.org/2000/svg">
<path d="M35.6732 63.6215C35.6732 64.2523 35.4212 64.8573 34.9728 65.3034C34.5244 65.7494 33.9163 66 33.2821 66H23.7179C23.0837 66 22.4756 65.7494 22.0272 65.3034C21.5788 64.8573 21.3268 64.2523 21.3268 63.6215C21.3268 62.9907 21.5788 62.3857 22.0272 61.9396C22.4756 61.4936 23.0837 61.243 23.7179 61.243H33.2821C33.9163 61.243 34.5244 61.4936 34.9728 61.9396C35.4212 62.3857 35.6732 62.9907 35.6732 63.6215ZM28.5 29.1332C29.2094 29.1332 29.9028 28.924 30.4926 28.532C31.0824 28.1399 31.5421 27.5827 31.8136 26.9308C32.085 26.2789 32.1561 25.5615 32.0177 24.8695C31.8793 24.1774 31.5377 23.5417 31.0361 23.0427C30.5345 22.5438 29.8954 22.204 29.1997 22.0663C28.504 21.9286 27.7828 21.9993 27.1275 22.2693C26.4721 22.5394 25.912 22.9966 25.5179 23.5834C25.1238 24.1701 24.9134 24.8599 24.9134 25.5655C24.9134 26.5117 25.2913 27.4192 25.9639 28.0883C26.6365 28.7574 27.5488 29.1332 28.5 29.1332ZM56.8938 43.8799L53.1876 60.4105C53.0133 61.199 52.6388 61.93 52.0999 62.5337C51.561 63.1375 50.8756 63.5938 50.1091 63.8593C49.5892 64.0347 49.0442 64.1251 48.4952 64.1269C47.4193 64.1211 46.3768 63.7544 45.5363 63.0863L37.2273 56.486H19.7727L11.4637 63.0863C10.6232 63.7544 9.58072 64.1211 8.50482 64.1269C7.95583 64.1251 7.41078 64.0347 6.89086 63.8593C6.12436 63.5938 5.439 63.1375 4.9001 62.5337C4.36121 61.93 3.98673 61.199 3.81238 60.4105L0.106244 43.8799C-0.0465195 43.1688 -0.0344017 42.4324 0.141676 41.7267C0.317754 41.0209 0.653164 40.3643 1.12244 39.8068L9.96934 29.2224C10.2328 25.5831 11.049 22.0045 12.3903 18.6084C15.8872 9.62954 22.1039 3.74275 25.5112 1.03721C26.3604 0.36075 27.4173 -0.0053521 28.5053 5.91362e-05C29.5932 0.00547037 30.6464 0.382068 31.4888 1.06694C34.8662 3.77249 40.9933 9.65927 44.4603 18.6381C45.7521 21.9653 46.5574 25.4596 46.8513 29.0143L55.8776 39.8068C56.3468 40.3643 56.6822 41.0209 56.8583 41.7267C57.0344 42.4324 57.0465 43.1688 56.8938 43.8799ZM20.3405 51.729H36.6296C40.8737 43.7016 49.5114 21.7302 28.5 4.75362C22.881 9.21331 5.99421 25.6547 20.3405 51.729ZM15.8573 53.5129C12.7489 47.6855 10.8461 41.997 10.1487 36.4471L4.79869 42.8394L8.47493 59.3699L15.8573 53.5129ZM52.2013 42.8394L46.7318 36.2985C46.0742 41.888 44.2212 47.6261 41.1128 53.4831L48.5251 59.3699L52.2013 42.8394Z" fill="#4519E0"/>
</svg>
