<svg width="66" height="66" viewBox="0 0 66 66" fill="none" xmlns="http://www.w3.org/2000/svg">
<path d="M4.125 6.1875C4.125 4.54647 4.7769 2.97266 5.93728 1.81228C7.09766 0.651895 8.67147 0 10.3125 0L59.8125 0C61.4535 0 63.0273 0.651895 64.1877 1.81228C65.3481 2.97266 66 4.54647 66 6.1875V59.8125C66 61.4535 65.3481 63.0273 64.1877 64.1877C63.0273 65.3481 61.4535 66 59.8125 66H10.3125C8.67147 66 7.09766 65.3481 5.93728 64.1877C4.7769 63.0273 4.125 61.4535 4.125 59.8125V53.625H2.0625C1.51549 53.625 0.990886 53.4077 0.604092 53.0209C0.217299 52.6341 0 52.1095 0 51.5625C0 51.0155 0.217299 50.4909 0.604092 50.1041C0.990886 49.7173 1.51549 49.5 2.0625 49.5H4.125V35.0625H2.0625C1.51549 35.0625 0.990886 34.8452 0.604092 34.4584C0.217299 34.0716 0 33.547 0 33C0 32.453 0.217299 31.9284 0.604092 31.5416C0.990886 31.1548 1.51549 30.9375 2.0625 30.9375H4.125V16.5H2.0625C1.51549 16.5 0.990886 16.2827 0.604092 15.8959C0.217299 15.5091 0 14.9845 0 14.4375C0 13.8905 0.217299 13.3659 0.604092 12.9791C0.990886 12.5923 1.51549 12.375 2.0625 12.375H4.125V6.1875ZM10.3125 4.125C9.76549 4.125 9.24089 4.3423 8.85409 4.72909C8.4673 5.11589 8.25 5.64049 8.25 6.1875V59.8125C8.25 60.3595 8.4673 60.8841 8.85409 61.2709C9.24089 61.6577 9.76549 61.875 10.3125 61.875H59.8125C60.3595 61.875 60.8841 61.6577 61.2709 61.2709C61.6577 60.8841 61.875 60.3595 61.875 59.8125V6.1875C61.875 5.64049 61.6577 5.11589 61.2709 4.72909C60.8841 4.3423 60.3595 4.125 59.8125 4.125H10.3125Z" fill="#4519E0"/>
<path d="M55.6875 24.75C56.2345 24.75 56.7591 24.9673 57.1459 25.3541C57.5327 25.7409 57.75 26.2655 57.75 26.8125V39.1875C57.75 39.7345 57.5327 40.2592 57.1459 40.6459C56.7591 41.0327 56.2345 41.25 55.6875 41.25C55.1405 41.25 54.6159 41.0327 54.2291 40.6459C53.8423 40.2592 53.625 39.7345 53.625 39.1875V26.8125C53.625 26.2655 53.8423 25.7409 54.2291 25.3541C54.6159 24.9673 55.1405 24.75 55.6875 24.75ZM19.9155 18.414C20.1071 18.222 20.3347 18.0696 20.5853 17.9656C20.8358 17.8616 21.1045 17.8081 21.3758 17.8081C21.647 17.8081 21.9157 17.8616 22.1662 17.9656C22.4168 18.0696 22.6444 18.222 22.836 18.414L27.3323 22.9103C29.4272 21.4235 31.9326 20.6248 34.5015 20.6248C37.0704 20.6248 39.5758 21.4235 41.6708 22.9103L46.167 18.414C46.5543 18.0273 47.0793 17.8103 47.6267 17.8106C48.174 17.811 48.6987 18.0288 49.0854 18.4161C49.4722 18.8034 49.6892 19.3284 49.6888 19.8758C49.6885 20.4231 49.4707 20.9478 49.0834 21.3345L44.5871 25.8308C47.6396 30.1084 47.6396 35.8958 44.5871 40.1693L49.0834 44.6655C49.4707 45.0523 49.6885 45.577 49.6888 46.1243C49.6892 46.6716 49.4722 47.1967 49.0854 47.584C48.6987 47.9713 48.174 48.189 47.6267 48.1894C47.0793 48.1898 46.5543 47.9728 46.167 47.586L41.6708 43.0898C39.576 44.5771 37.0706 45.3762 34.5015 45.3762C31.9324 45.3762 29.427 44.5771 27.3323 43.0898L22.836 47.586C22.6442 47.7778 22.4166 47.9299 22.166 48.0337C21.9155 48.1375 21.647 48.1909 21.3758 48.1909C21.1046 48.1909 20.836 48.1375 20.5855 48.0337C20.3349 47.9299 20.1073 47.7778 19.9155 47.586C19.7237 47.3943 19.5716 47.1666 19.4678 46.9161C19.3641 46.6655 19.3107 46.397 19.3107 46.1258C19.3107 45.8546 19.3641 45.5861 19.4678 45.3355C19.5716 45.085 19.7237 44.8573 19.9155 44.6655L24.4118 40.1693C22.925 38.0743 22.1263 35.569 22.1263 33C22.1263 30.4311 22.925 27.9257 24.4118 25.8308L19.9155 21.3345C19.7234 21.143 19.571 20.9154 19.4671 20.6648C19.3631 20.4142 19.3096 20.1456 19.3096 19.8743C19.3096 19.603 19.3631 19.3344 19.4671 19.0838C19.571 18.8332 19.7234 18.6056 19.9155 18.414ZM28.6688 27.1673C27.8808 27.9283 27.2523 28.8387 26.8199 29.8452C26.3875 30.8517 26.16 31.9343 26.1504 33.0297C26.1409 34.1252 26.3497 35.2115 26.7645 36.2254C27.1793 37.2393 27.7919 38.1604 28.5665 38.935C29.3411 39.7097 30.2622 40.3223 31.2761 40.7371C32.29 41.1519 33.3764 41.3606 34.4718 41.3511C35.5672 41.3416 36.6498 41.114 37.6563 40.6816C38.6629 40.2493 39.5732 39.6207 40.3343 38.8328C41.8371 37.2768 42.6686 35.1929 42.6498 33.0297C42.631 30.8666 41.7634 28.7974 40.2338 27.2678C38.7041 25.7382 36.6349 24.8705 34.4718 24.8517C32.3087 24.8329 30.2247 25.6645 28.6688 27.1673Z" fill="#4519E0"/>
</svg>
