<svg width="28" height="27" viewBox="0 0 28 27" fill="none" xmlns="http://www.w3.org/2000/svg">
<path d="M5.87618 3.00133C5.87579 3.79694 5.56587 4.5598 5.0146 5.1221C4.46332 5.68439 3.71585 6.00007 2.93662 5.99967C2.15739 5.99927 1.41023 5.68283 0.859508 5.11998C0.308785 4.55712 -0.000389247 3.79394 3.67792e-07 2.99833C0.000389983 2.20273 0.310311 1.43987 0.861586 0.87757C1.41286 0.315274 2.16033 -0.000397427 2.93956 3.75521e-07C3.71879 0.000398178 4.46595 0.316833 5.01667 0.879692C5.5674 1.44255 5.87657 2.20573 5.87618 3.00133ZM5.96432 8.22104H0.088143V27H5.96432V8.22104ZM15.2487 8.22104H9.40189V27H15.1899V17.1455C15.1899 11.6559 22.1973 11.1459 22.1973 17.1455V27H28V15.1057C28 5.85117 17.6285 6.19616 15.1899 10.7409L15.2487 8.22104Z" fill="#F8F8F8"/>
</svg>
