<svg width="150" height="57" viewBox="0 0 150 57" fill="none" xmlns="http://www.w3.org/2000/svg">
<path d="M6.24 12.96H0V44H6.24V37.84H12.48V31.6H6.24V12.96ZM24.88 31.6H18.72V37.84H24.88V44H31.12V12.96H24.88V31.6ZM12.48 25.36V31.6H18.72V25.36H12.48ZM99.5675 25.36H80.9275V19.12H99.5675V12.96H74.6875V44H99.5675V37.84H80.9275V31.6H99.5675V37.84H105.808V19.12H99.5675V25.36ZM112.031 19.12H136.991V25.36H124.511V31.6H136.991V37.84H112.031V44H143.151V12.96H112.031V19.12Z" fill="white"/>
<path d="M37.3438 12.96V44H68.4638V37.84H43.5838V31.6H55.9838V25.36H43.5838V19.12H68.4638V12.96H37.3438Z" fill="#4519E0"/>
<rect x="124" y="25" width="19" height="7" fill="#4519E0"/>
</svg>
